# xmcd CD database file
#
# Track frame offsets:
#	150
#	14029
#	26791
#	40403
#	53045
#	66815
#	77064
#	89007
#	101829
#	114118
#	126326
#	137978
#
# Disc length: 2011 seconds
#
# Revision: 0
# Processed by: cddbd v1.5.2PL0 Copyright (c) Steve Scherf et al.
# Submitted via: CDex 1.51
#
DISCID=ab07d90c
DTITLE=Various Artist - Singing Cowboys Disc 2
DYEAR=2003
DGENRE=Country
TTITLE0=Gene Autry - Yellow Rose of Texas
TTITLE1=Roy Rogers - There's a Round Up in the Sky
TTITLE2=Al Dexter - Blow That Lonesome Whistle, Casey
TTITLE3=Jimmie Davis - My Blue Bonnet Girl
TTITLE4=Tex Ritter - I'm Wasting My Tears on You
TTITLE5=Gene Autry - There's a Good Gal in the Mountains
TTITLE6=Eddie Dean - Put a Little Sweetenin' in Your Love
TTITLE7=Roy Rogers - When the Black Sheep Gets the Blues
TTITLE8=Al Dexter - I Waited Too Long
TTITLE9=Tex Ritter - Sing Cowboy Sing
TTITLE10=Jimmie Davis - Do You Ever Think of Me?
TTITLE11=Roy Rogers - Chapel in the Valley
EXTD=YEAR: 2003
EXTT0=
EXTT1=
EXTT2=
EXTT3=
EXTT4=
EXTT5=
EXTT6=
EXTT7=
EXTT8=
EXTT9=
EXTT10=
EXTT11=
PLAYORDER=
